<svg xmlns="http://www.w3.org/2000/svg" xmlns:svg="http://www.w3.org/2000/svg" xmlns:xlink="http://www.w3.org/1999/xlink" style="isolation:isolate" id="svg2" width="965.1" height="194.073" version="1.1" viewBox="0 0 965.1 194.073"><metadata id="metadata62"/><defs id="defs4"><linearGradient id="linearGradient4347"><stop id="stop4349" offset="0" style="stop-color:#fff;stop-opacity:.263"/><stop id="stop4351" offset="1" style="stop-color:#fff;stop-opacity:0"/></linearGradient><linearGradient id="linearGradient4311"><stop style="stop-color:#fff;stop-opacity:.283" id="stop4313" offset="0"/><stop style="stop-color:#fff;stop-opacity:0" id="stop4315" offset="1"/></linearGradient><linearGradient id="linearGradient4305"><stop id="stop4307" offset="0" style="stop-color:#fff;stop-opacity:.323"/><stop id="stop4309" offset="1" style="stop-color:#fff;stop-opacity:0"/></linearGradient><linearGradient id="linearGradient4348"><stop id="stop4350" offset="0" style="stop-color:#d2490f;stop-opacity:1"/><stop id="stop4352" offset="1" style="stop-color:#351204;stop-opacity:0"/></linearGradient><linearGradient id="linearGradient4478"><stop id="stop4480" offset="0" style="stop-color:#8d300a;stop-opacity:1"/><stop id="stop4482" offset="1" style="stop-color:#4a1905;stop-opacity:0"/></linearGradient><linearGradient id="linearGradient4448"><stop id="stop4450" offset="0" style="stop-color:#fff;stop-opacity:.39"/><stop id="stop4452" offset="1" style="stop-color:#fff;stop-opacity:0"/></linearGradient><linearGradient id="linearGradient4381"><stop style="stop-color:#872f0a;stop-opacity:1" id="stop4383" offset="0"/><stop style="stop-color:#cc470f;stop-opacity:0" id="stop4385" offset="1"/></linearGradient><linearGradient id="linearGradient4357"><stop style="stop-color:#9f370a;stop-opacity:1" id="stop4359" offset="0"/><stop style="stop-color:#9f370a;stop-opacity:0" id="stop4361" offset="1"/></linearGradient><linearGradient id="linearGradient4301"><stop style="stop-color:#93340c;stop-opacity:1" id="stop4303" offset="0"/><stop style="stop-color:#93340c;stop-opacity:0" id="stop4305" offset="1"/></linearGradient><linearGradient id="linearGradient4269"><stop style="stop-color:#d2490f;stop-opacity:1" id="stop4271" offset="0"/><stop style="stop-color:#d2490f;stop-opacity:0" id="stop4273" offset="1"/></linearGradient><linearGradient id="linearGradient4245"><stop style="stop-color:#8d300a;stop-opacity:1" id="stop4247" offset="0"/><stop style="stop-color:#4a1905;stop-opacity:0" id="stop4249" offset="1"/></linearGradient><linearGradient id="linearGradient4237"><stop style="stop-color:#aa3b0b;stop-opacity:1" id="stop4239" offset="0"/><stop style="stop-color:#aa3b0b;stop-opacity:0" id="stop4241" offset="1"/></linearGradient><linearGradient id="linearGradient5995"><stop style="stop-color:#fff;stop-opacity:.272" id="stop5997" offset="0"/><stop style="stop-color:#fff;stop-opacity:0" id="stop5999" offset="1"/></linearGradient><linearGradient id="linearGradient5941"><stop id="stop5943" offset="0" style="stop-color:#fff;stop-opacity:.272"/><stop id="stop5945" offset="1" style="stop-color:#fff;stop-opacity:0"/></linearGradient><linearGradient id="linearGradient5887"><stop style="stop-color:#fff;stop-opacity:1" id="stop5889" offset="0"/><stop style="stop-color:#fff;stop-opacity:0" id="stop5891" offset="1"/></linearGradient><linearGradient id="linearGradient5857"><stop id="stop5859" offset="0" style="stop-color:#fff;stop-opacity:1"/><stop id="stop5861" offset="1" style="stop-color:#fff;stop-opacity:0"/></linearGradient><linearGradient id="linearGradient5803"><stop style="stop-color:#fff;stop-opacity:1" id="stop5805" offset="0"/><stop style="stop-color:#fff;stop-opacity:0" id="stop5807" offset="1"/></linearGradient><linearGradient id="linearGradient5704"><stop id="stop5706" offset="0" style="stop-color:#fff;stop-opacity:1"/><stop id="stop5708" offset="1" style="stop-color:#fff;stop-opacity:0"/></linearGradient><linearGradient id="linearGradient5646"><stop style="stop-color:#fff;stop-opacity:1" id="stop5648" offset="0"/><stop style="stop-color:#fff;stop-opacity:0" id="stop5650" offset="1"/></linearGradient><clipPath id="_clipPath_DfHBhjQmP2DtYrNY0tM29ZwsPHhcLfHp"><rect id="rect7" width="965.1" height="192.5" x="0" y="0"/></clipPath><radialGradient id="radialGradient5654" cx="509.088" cy="19.467" r="34.682" fx="509.088" fy="19.467" gradientTransform="matrix(0.66549464,-0.20751255,0.00270823,0.00868534,136.51627,137.24102)" gradientUnits="userSpaceOnUse" xlink:href="#linearGradient5704"/><radialGradient id="radialGradient5654-7" cx="530.998" cy="-84.474" r="34.682" fx="530.998" fy="-84.474" gradientTransform="matrix(0.33793667,-0.27143153,0.00627398,0.00781122,257.36158,161.23052)" gradientUnits="userSpaceOnUse" xlink:href="#linearGradient5646"/><radialGradient id="radialGradient5654-4" cx="509.016" cy="63.604" r="34.682" fx="509.016" fy="63.604" gradientTransform="matrix(0.62214923,0.31097444,-0.00406762,0.00813783,160.80967,-146.12932)" gradientUnits="userSpaceOnUse" xlink:href="#linearGradient5803"/><radialGradient id="radialGradient5654-4-1" cx="478.422" cy="501.388" r="34.682" fx="478.422" fy="501.388" gradientTransform="matrix(-0.0330831,0.49980705,-0.01878847,-0.00124369,479.12186,-217.92079)" gradientUnits="userSpaceOnUse" xlink:href="#linearGradient5803"/><radialGradient id="radialGradient5654-4-1-9" cx="460.804" cy="2145.688" r="34.682" fx="460.804" fy="2145.688" gradientTransform="matrix(0.35030399,0.0714918,-0.00181923,0.00891405,277.17006,-16.654624)" gradientUnits="userSpaceOnUse" xlink:href="#linearGradient5857"/><radialGradient id="radialGradient5654-4-1-2" cx="486.575" cy="646.616" r="34.682" fx="486.575" fy="646.616" gradientTransform="matrix(-0.04797749,0.18731469,-0.0088133,-0.00225738,449.06373,-69.786546)" gradientUnits="userSpaceOnUse" xlink:href="#linearGradient5887"/><radialGradient id="radialGradient5654-4-1-2-9" cx="474.747" cy="635.966" r="34.682" fx="474.747" fy="635.966" gradientTransform="matrix(0.0278289,0.22987684,-0.00903181,0.00109339,491.15926,-96.228541)" gradientUnits="userSpaceOnUse" xlink:href="#linearGradient5887"/><radialGradient id="radialGradient5654-4-1-2-0" cx="495.682" cy="433.908" r="34.682" fx="495.682" fy="433.908" gradientTransform="matrix(-0.19125263,0.18869517,-0.00638967,-0.00647627,505.97151,-50.033406)" gradientUnits="userSpaceOnUse" xlink:href="#linearGradient5941"/><radialGradient id="radialGradient5654-4-1-2-7-7" cx="506.309" cy="144.874" r="34.682" fx="506.309" fy="144.874" gradientTransform="matrix(0.36659484,0.70916984,-0.00808184,0.00417778,244.49825,-304.65395)" gradientUnits="userSpaceOnUse" xlink:href="#linearGradient4448"/><linearGradient id="linearGradient4234" x1="459.086" x2="476.423" y1="-5.491" y2="12.465" gradientTransform="translate(15.264632,45.570599)" gradientUnits="userSpaceOnUse" xlink:href="#linearGradient5887"/><linearGradient id="linearGradient4416" x1="431.8" x2="479.973" y1="-50.676" y2="-27.957" gradientTransform="translate(15.264632,45.570599)" gradientUnits="userSpaceOnUse" xlink:href="#linearGradient5857"/><linearGradient id="linearGradient4424" x1="415.888" x2="478.918" y1="-56.583" y2="-15.977" gradientTransform="translate(15.264632,45.570599)" gradientUnits="userSpaceOnUse" xlink:href="#linearGradient5704"/><linearGradient id="linearGradient4426" x1="410.318" x2="447.09" y1="-35.121" y2="-.162" gradientTransform="translate(15.264632,45.570599)" gradientUnits="userSpaceOnUse" xlink:href="#linearGradient5803"/><linearGradient id="linearGradient4426-1" x1="397.961" x2="422.641" y1="-41.117" y2="-13.337" gradientTransform="translate(26.779927,49.153202)" gradientUnits="userSpaceOnUse" xlink:href="#linearGradient5803"/><linearGradient id="linearGradient4458" x1="395.41" x2="403.032" y1="-26.469" y2="32.278" gradientTransform="translate(15.264632,45.570599)" gradientUnits="userSpaceOnUse" xlink:href="#linearGradient5887"/><linearGradient id="linearGradient4466" x1="385.486" x2="389.636" y1="-29.946" y2="27.464" gradientTransform="translate(15.264632,45.570599)" gradientUnits="userSpaceOnUse" xlink:href="#linearGradient5646"/><linearGradient id="linearGradient4474" x1="391.978" x2="413.804" y1="-20.268" y2="-7.808" gradientTransform="translate(15.264632,45.570599)" gradientUnits="userSpaceOnUse" xlink:href="#linearGradient5646"/><linearGradient id="linearGradient4458-1" x1="386.134" x2="410.898" y1="-35.03" y2="19.895" gradientTransform="translate(29.942824,50.590537)" gradientUnits="userSpaceOnUse" xlink:href="#linearGradient5887"/><linearGradient id="linearGradient4458-1-4" x1="408.973" x2="422.013" y1="-10.507" y2="16.352" gradientTransform="translate(43.833148,50.431046)" gradientUnits="userSpaceOnUse" xlink:href="#linearGradient5704"/><radialGradient id="radialGradient5654-4-18" cx="503.289" cy="86.298" r="34.682" fx="503.289" fy="86.298" gradientTransform="matrix(0.4543455,0.37403573,-0.00578233,0.00702385,242.98798,-134.63556)" gradientUnits="userSpaceOnUse" xlink:href="#linearGradient5995"/><linearGradient id="linearGradient4243" x1="519.258" x2="505.116" y1="84.895" y2="41.559" gradientUnits="userSpaceOnUse" xlink:href="#linearGradient4237"/><linearGradient id="linearGradient4251" x1="505.61" x2="492.854" y1="109.494" y2="76.648" gradientUnits="userSpaceOnUse" xlink:href="#linearGradient4245"/><linearGradient id="linearGradient4275" x1="432.755" x2="409.532" y1="125.593" y2="77.571" gradientUnits="userSpaceOnUse" xlink:href="#linearGradient4348"/><linearGradient id="linearGradient4283" x1="403.1" x2="396.85" y1="86.573" y2="46.823" gradientUnits="userSpaceOnUse" xlink:href="#linearGradient4269"/><linearGradient id="linearGradient4291" x1="504.268" x2="512.303" y1="32.965" y2="42.318" gradientUnits="userSpaceOnUse" xlink:href="#linearGradient4311"/><linearGradient id="linearGradient4299" x1="499.195" x2="523.922" y1="12.12" y2="38.766" gradientUnits="userSpaceOnUse" xlink:href="#linearGradient4305"/><linearGradient id="linearGradient4307" x1="526.1" x2="529.35" y1="83.573" y2="49.073" gradientUnits="userSpaceOnUse" xlink:href="#linearGradient4301"/><linearGradient id="linearGradient4379" x1="455.906" x2="447.522" y1="115.658" y2="61.361" gradientUnits="userSpaceOnUse" xlink:href="#linearGradient4357"/><linearGradient id="linearGradient4387" x1="482.834" x2="469.101" y1="117.48" y2="67.402" gradientUnits="userSpaceOnUse" xlink:href="#linearGradient4381"/><linearGradient id="linearGradient4403" x1="430.379" x2="417.169" y1="130.046" y2="73.654" gradientUnits="userSpaceOnUse" xlink:href="#linearGradient4357"/><radialGradient id="radialGradient5654-4-18-0" cx="477.559" cy="-65.778" r="34.682" fx="477.559" fy="-65.778" gradientTransform="matrix(-0.06682786,0.41353786,-0.00898128,-0.00145139,528.76747,-157.01135)" gradientUnits="userSpaceOnUse" xlink:href="#linearGradient5995"/><radialGradient id="radialGradient5654-4-1-8" cx="470.994" cy="495.357" r="34.682" fx="470.994" fy="495.357" gradientTransform="matrix(-0.10156204,0.51422302,-0.01847273,-0.00364852,544.3945,-143.48898)" gradientUnits="userSpaceOnUse" xlink:href="#linearGradient4478"/><radialGradient id="radialGradient5654-4-1-8-7" cx="467.195" cy="529.153" r="34.682" fx="467.195" fy="529.153" gradientTransform="matrix(-0.14648579,0.44596199,-0.01788923,-0.00587615,517.29084,-100.77887)" gradientUnits="userSpaceOnUse" xlink:href="#linearGradient4478"/><radialGradient id="radialGradient5654-4-1-8-7-1" cx="435.614" cy="285.037" r="34.682" fx="435.614" fy="285.037" gradientTransform="matrix(0.3237287,0.28716033,-0.01249517,0.01408631,327.82443,-25.081429)" gradientUnits="userSpaceOnUse" xlink:href="#linearGradient4478"/><radialGradient id="radialGradient5654-4-1-8-79" cx="468.758" cy="670.336" r="34.682" fx="468.758" fy="670.336" gradientTransform="matrix(0.35207511,0.26701539,-0.01137832,0.0150029,349.83811,-52.860015)" gradientUnits="userSpaceOnUse" xlink:href="#linearGradient4478"/><radialGradient id="radialGradient5654-4-1-8-79-4-4" cx="420.103" cy="1173.837" r="34.682" fx="420.103" fy="1173.837" gradientTransform="matrix(-0.41380853,0.03815099,-0.00172861,-0.01875007,635.51937,127.44455)" gradientUnits="userSpaceOnUse" xlink:href="#linearGradient4478"/><radialGradient id="radialGradient5654-4-1-8-79-5" cx="472.832" cy="589.241" r="34.682" fx="472.832" fy="589.241" gradientTransform="matrix(0.55916069,-0.17175132,0.00703367,0.02289935,201.18669,146.5126)" gradientUnits="userSpaceOnUse" xlink:href="#linearGradient4478"/><radialGradient id="radialGradient5654-4-1-8-79-5-5" cx="447.348" cy="709.92" r="34.682" fx="447.348" fy="709.92" gradientTransform="matrix(0.2259289,-0.17629618,0.0115837,0.0148449,394.63202,131.5306)" gradientUnits="userSpaceOnUse" xlink:href="#linearGradient4478"/><radialGradient id="radialGradient5654-4-1-8-79-5-1" cx="469.079" cy="659.928" r="34.682" fx="469.079" fy="659.928" gradientTransform="matrix(0.28309528,0.04689954,-0.00307752,0.01857638,298.01168,48.99481)" gradientUnits="userSpaceOnUse" xlink:href="#linearGradient4478"/><radialGradient id="radialGradient5654-1" cx="513.242" cy="-56.948" r="34.682" fx="513.242" fy="-56.948" gradientTransform="matrix(0.66945717,-0.19955116,0.00528135,0.01771791,125.66345,181.98413)" gradientUnits="userSpaceOnUse" xlink:href="#linearGradient4448"/><radialGradient id="radialGradient5654-1-1" cx="513.996" cy="28.216" r="34.682" fx="513.996" fy="28.216" gradientTransform="matrix(0.22583917,-0.1834137,0.00573547,0.00706213,387.1007,156.99543)" gradientUnits="userSpaceOnUse" xlink:href="#linearGradient4448"/><radialGradient id="radialGradient5654-1-6" cx="516.086" cy="56.566" r="34.682" fx="516.086" fy="56.566" gradientTransform="matrix(0.32381314,0.05514976,-0.00237108,0.01392191,261.30239,53.440304)" gradientUnits="userSpaceOnUse" xlink:href="#linearGradient4448"/><radialGradient id="radialGradient5654-4-1-8-79-4-1" cx="437.612" cy="1296.224" r="34.682" fx="437.612" fy="1296.224" gradientTransform="matrix(-0.0469117,0.28765939,-0.01858406,-0.00303073,494.35432,-63.471575)" gradientUnits="userSpaceOnUse" xlink:href="#linearGradient4478"/><radialGradient id="radialGradient5654-4-1-8-7-1-4" cx="485.854" cy="-504.411" r="34.682" fx="485.854" fy="-504.411" gradientTransform="matrix(0.3618764,-0.22687561,0.00811658,0.01294633,323.27665,228.0905)" gradientUnits="userSpaceOnUse" xlink:href="#linearGradient4478"/><radialGradient id="radialGradient5654-1-6-9-1-5" cx="517.507" cy="321.848" r="34.682" fx="517.507" fy="321.848" gradientTransform="matrix(-0.09453748,-0.16860033,0.00793545,-0.00444957,450.23513,158.3377)" gradientUnits="userSpaceOnUse" xlink:href="#linearGradient4448"/><radialGradient id="radialGradient5654-4-1-2-7-7-3" cx="500.227" cy="189.806" r="34.682" fx="500.227" fy="189.806" gradientTransform="matrix(-0.08498682,0.53484401,-0.00898507,-0.00142774,457.55596,-214.01472)" gradientUnits="userSpaceOnUse" xlink:href="#linearGradient4448"/><radialGradient id="radialGradient5654-4-1-8-6" cx="470.994" cy="495.357" r="34.682" fx="470.994" fy="495.357" gradientTransform="matrix(-0.06843114,0.40463605,-0.01856596,-0.00313987,538.57103,-143.76625)" gradientUnits="userSpaceOnUse" xlink:href="#linearGradient4478"/><radialGradient id="radialGradient5654-3" cx="510.757" cy="36.458" r="34.682" fx="510.757" fy="36.458" gradientTransform="matrix(-0.0753427,0.47918039,-0.00898737,-0.00141311,488.17004,-186.3659)" gradientUnits="userSpaceOnUse" xlink:href="#linearGradient4448"/><radialGradient id="radialGradient5654-4-1-8-7-0" cx="482.142" cy="363.062" r="34.682" fx="482.142" fy="363.062" gradientTransform="matrix(0.23262598,0.43840674,-0.0166331,0.00882574,316.21827,-109.76698)" gradientUnits="userSpaceOnUse" xlink:href="#linearGradient4478"/><radialGradient id="radialGradient5654-4-1-8-7-0-6" cx="469.012" cy="390.393" r="34.682" fx="469.012" fy="390.393" gradientTransform="matrix(-0.02079632,0.27775782,-0.01232818,-9.2305589e-4,423.00624,-36.774694)" gradientUnits="userSpaceOnUse" xlink:href="#linearGradient4478"/><filter style="color-interpolation-filters:sRGB" id="filter5926" width="1.373" height="1.632" x="-.186" y="-.316"><feGaussianBlur id="feGaussianBlur5928" stdDeviation="3.072"/></filter><radialGradient id="radialGradient5654-4-5" cx="508.56" cy="66.747" r="34.682" fx="508.56" fy="66.747" gradientTransform="matrix(0.28685136,0.19266106,-0.01187892,0.01768634,368.78227,-66.128859)" gradientUnits="userSpaceOnUse" xlink:href="#linearGradient4347"/><filter style="color-interpolation-filters:sRGB" id="filter4357" width="1.517" height="1.766" x="-.259" y="-.383"><feGaussianBlur id="feGaussianBlur4359" stdDeviation="4.014"/></filter></defs><path id="path12" d="m 0.9,169.17254 0,0 0,0 q 0,-7.3 3.5,-13.1 l 0,0 0,0 q 3.4,-5.7 9.2,-8.7 l 0,0 0,0 q 5.8,-3 12.9,-3 l 0,0 0,0 q 3.6,0 6.8,0.9 l 0,0 0,0 q 3.1,0.8 5.5,2.4 l 0,0 0,0 q 2.4,1.5 4.3,3.4 l 0,0 0,0 q 1.8,1.8 3.2,4 l 0,0 -8.4,4.7 0,0 q -1.8,-2.8 -4.8,-4.5 l 0,0 0,0 q -3,-1.8 -6.6,-1.8 l 0,0 0,0 q -6.6,0 -10.8,4.5 l 0,0 0,0 q -4.3,4.4 -4.3,11.2 l 0,0 0,0 q 0,6.9 4.3,11.3 l 0,0 0,0 q 4.2,4.5 10.8,4.5 l 0,0 0,0 q 4.9,0 8,-2.6 l 0,0 0,0 q 3.2,-2.7 4.5,-6.8 l 0,0 -15,0 0,-9 26.2,0 0,0 q 0,12.8 -6.6,20.2 l 0,0 0,0 q -6.5,7.3 -18,7.3 l 0,0 0,0 q -5,0 -9.4,-1.8 l 0,0 0,0 q -4.5,-1.8 -7.9,-4.9 l 0,0 0,0 q -3.4,-3.2 -5.4,-7.9 l 0,0 0,0 q -2,-4.7 -2,-10.3 z m 157.9,24 -34,0 0,-48 34,0 0,9 -23.8,0 0,10.1 23.3,0 0,9 -23.3,0 0,10.9 23.8,0 0,9 z m 77.3,-14 0,0 0,0 q -1.9,-4.6 -1.9,-10 l 0,0 0,0 q 0,-5.3 1.9,-9.9 l 0,0 0,0 q 1.9,-4.7 5.2,-7.9 l 0,0 0,0 q 3.3,-3.3 8,-5.1 l 0,0 0,0 q 4.7,-1.9 10,-1.9 l 0,0 0,0 q 7.2,0 12.9,3.2 l 0,0 0,0 q 5.7,3.1 9,8.8 l 0,0 0,0 q 3.2,5.7 3.2,12.8 l 0,0 0,0 q 0,7.2 -3.2,12.9 l 0,0 0,0 q -3.3,5.7 -9,8.8 l 0,0 0,0 q -5.7,3.2 -12.9,3.2 l 0,0 0,0 q -5.3,0 -10,-1.9 l 0,0 0,0 q -4.7,-1.8 -8,-5.1 l 0,0 0,0 q -3.3,-3.2 -5.2,-7.9 z m 8.7,-10 0,0 0,0 q 0,6.9 4,11.3 l 0,0 0,0 q 4,4.5 10.5,4.5 l 0,0 0,0 q 6.6,0 10.6,-4.5 l 0,0 0,0 q 4,-4.4 4,-11.3 l 0,0 0,0 q 0,-6.8 -4,-11.3 l 0,0 0,0 q -4,-4.4 -10.6,-4.4 l 0,0 0,0 q -6.6,0 -10.6,4.4 l 0,0 0,0 q -3.9,4.5 -3.9,11.3 z m 126.8,24 -10.2,0 0,-48 14.3,0 11.7,30 11.6,-30 14.4,0 0,48 -10.3,0 0,-34.6 -13.5,34.6 -4.5,0 -13.5,-34.6 0,34.6 z m 155.1,0 -34,0 0,-48 34,0 0,9 -23.7,0 0,10.1 23.2,0 0,9 -23.2,0 0,10.9 23.7,0 0,9 z m 88.9,-39 -14.1,0 0,-9 38.3,0 0,9 -13.9,0 0,39 -10.3,0 0,-39 z m 110.8,39 -10.3,0 0,-48 22.5,0 0,0 q 7.4,0 11.8,4.3 l 0,0 0,0 q 4.4,4.3 4.4,11.2 l 0,0 0,0 q 0,3 -0.9,5.6 l 0,0 0,0 q -0.9,2.5 -2.5,4.2 l 0,0 0,0 q -1.5,1.7 -3.3,2.8 l 0,0 0,0 q -1.8,1.1 -3.9,1.6 l 0,0 10.9,18.3 -11.8,0 -9.4,-17 -7.5,0 0,17 z m 0,-39 0,13 10.8,0 0,0 q 3.1,0 5.1,-1.8 l 0,0 0,0 q 2,-1.8 2,-4.8 l 0,0 0,0 q 0,-2.9 -2,-4.7 l 0,0 0,0 q -2,-1.7 -5.1,-1.7 l 0,0 -10.8,0 z m 116,39 -10.2,0 0,-48 10.2,0 0,48 z m 77.1,-24 0,0 0,0 q 0,-7.2 3.3,-12.9 l 0,0 0,0 q 3.4,-5.7 9.2,-8.8 l 0,0 0,0 q 5.9,-3.1 13.1,-3.1 l 0,0 0,0 q 3.8,0 7,1 l 0,0 0,0 q 3.3,0.9 5.7,2.6 l 0,0 0,0 q 2.4,1.7 4.2,3.7 l 0,0 0,0 q 1.8,2 3.1,4.4 l 0,0 -8.8,4.4 0,0 q -1.5,-3.1 -4.6,-5 l 0,0 0,0 q -3.1,-2 -6.6,-2 l 0,0 0,0 q -6.6,0 -10.9,4.5 l 0,0 0,0 q -4.2,4.4 -4.2,11.2 l 0,0 0,0 q 0,6.9 4.2,11.3 l 0,0 0,0 q 4.3,4.5 10.9,4.5 l 0,0 0,0 q 3.5,0 6.6,-2 l 0,0 0,0 q 3.1,-1.9 4.6,-5 l 0,0 8.8,4.3 0,0 q -1.4,2.4 -3.1,4.4 l 0,0 0,0 q -1.8,2 -4.2,3.7 l 0,0 0,0 q -2.4,1.7 -5.7,2.7 l 0,0 0,0 q -3.2,1 -7,1 l 0,0 0,0 q -5.4,0 -10.1,-1.8 l 0,0 0,0 q -4.8,-1.9 -8.2,-5.1 l 0,0 0,0 q -3.4,-3.2 -5.4,-7.8 l 0,0 0,0 q -1.9,-4.7 -1.9,-10.2 z" style="fill:#333;fill-rule:evenodd"/><path id="path14" d="m 594.4,124.67254 -25.6,0 0,-119.9999994 56.2,0 0,0 q 18.4,0 29.5,10.8000004 l 0,0 0,0 q 11,10.8 11,27.8 l 0,0 0,0 q 0,7.6 -2.3,14 l 0,0 0,0 q -2.3,6.4 -6.1,10.7 l 0,0 0,0 q -3.9,4.3 -8.4,7 l 0,0 0,0 q -4.5,2.8 -9.6,4 l 0,0 27.1,45.699999 -29.5,0 -23.6,-42.599999 -18.7,0 0,42.599999 z m 0,-97.499999 0,32.4 27,0 0,0 q 7.7,0 12.8,-4.4 l 0,0 0,0 q 5,-4.5 5,-12 l 0,0 0,0 q 0,-7.3 -5,-11.7 l 0,0 0,0 q -5.1,-4.3 -12.8,-4.3 l 0,0 -27,0 z m 108.9,37.6 0,0 0,0 q 0,-18.2 8.4,-32.4 l 0,0 0,0 q 8.5,-14.3 23,-22 l 0,0 0,0 q 14.6,-7.8000004 32.7,-7.8000004 l 0,0 0,0 q 9.4,0 17.6,2.5 l 0,0 0,0 q 8.1,2.4 14.1,6.6000004 l 0,0 0,0 q 6,4.3 10.5,9.3 l 0,0 0,0 q 4.4,4.9 7.8,11 l 0,0 -22,10.8 0,0 q -3.9,-7.5 -11.5,-12.5 l 0,0 0,0 q -7.7,-4.9 -16.5,-4.9 l 0,0 0,0 q -16.5,0 -27.2,11.2 l 0,0 0,0 q -10.6,11.1 -10.6,28.2 l 0,0 0,0 q 0,17 10.6,28.2 l 0,0 0,0 q 10.7,11.199999 27.2,11.199999 l 0,0 0,0 q 8.8,0 16.5,-4.899999 l 0,0 0,0 q 7.6,-5 11.5,-12.5 l 0,0 22,10.6 0,0 q -3.5,6.099999 -7.8,10.999999 l 0,0 0,0 q -4.4,5 -10.4,9.3 l 0,0 0,0 q -6.1,4.3 -14.2,6.8 l 0,0 0,0 q -8.2,2.4 -17.6,2.4 l 0,0 0,0 q -13.5,0 -25.3,-4.5 l 0,0 0,0 q -11.8,-4.6 -20.4,-12.7 l 0,0 0,0 q -8.6,-8 -13.5,-19.599999 l 0,0 0,0 q -4.9,-11.7 -4.9,-25.3 z m 179.3,59.899999 -25.5,0 0,-119.9999994 25.5,0 0,47.2000004 56.7,0 0,-47.2000004 25.8,0 0,119.9999994 -25.8,0 0,-50.499999 -56.7,0 0,50.499999 z" style="fill:#333;fill-rule:evenodd"/><path id="path16" d="m 25.6,124.67254 -25.6,0 0,-119.9999994 56.2,0 0,0 q 9.5,0 17.2,3 l 0,0 0,0 q 7.8,3.1000004 12.8,8.4000004 l 0,0 0,0 q 4.9,5.3 7.6,12.3 l 0,0 0,0 q 2.7,6.9 2.7,14.9 l 0,0 0,0 q 0,7.9 -2.7,14.9 l 0,0 0,0 q -2.7,6.9 -7.7,12.3 l 0,0 0,0 q -5,5.3 -12.7,8.3 l 0,0 0,0 q -7.7,3.1 -17.2,3.1 l 0,0 -30.6,0 0,42.799999 z m 0,-97.499999 0,32.2 27,0 0,0 q 7.7,0 12.7,-4.4 l 0,0 0,0 q 5.1,-4.4 5.1,-11.7 l 0,0 0,0 q 0,-7.3 -5.1,-11.7 l 0,0 0,0 q -5,-4.4 -12.7,-4.4 l 0,0 -27,0 z m 144.9,48.4 -46.1,-70.9000004 29.2,0 29.7,48.0000004 29.6,-48.0000004 29,0 -45.8,70.9000004 0,49.099999 -25.6,0 0,-49.099999 z m 134.8,-48.4 -35.2,0 0,-22.5000004 95.8,0 0,22.5000004 -34.9,0 0,97.499999 -25.7,0 0,-97.499999 z" style="fill:#333;fill-rule:evenodd"/><path style="fill:#ef5818" id="path20" d="m 497.85,5.6350406 -42.75,-4.0625 -33.0625,9.8125004 -26.9375,42.6875 12.5,49.999999 25,20 20,2.5 40,-10 30,-22.499999 5,-10 1.3125,-41.4375 z"/><path style="opacity:.353;fill:url(#linearGradient4234);fill-opacity:1" id="path22" d="M 452.59933,39.071871 500.1,24.072541 l -7.5,47.5 z"/><path style="fill:#732908;fill-opacity:1" id="path24" d="m 522.6,94.072541 -17.52979,22.292959 -25.27136,11.23369 -22.54038,1.51754 -24.65847,-5.04419 50,-5 z"/><path style="fill:url(#linearGradient4424);fill-opacity:1" id="path26" d="m 500.1,24.072541 -45,-22.5000004 -2.5,37.5000004 47.5,-15 z"/><path style="fill:url(#linearGradient4416);fill-opacity:1" id="path28" d="m 455.1,1.5725406 42.75,4.0625 2.25,18.4375004 z"/><path style="fill:url(#linearGradient4299);fill-opacity:1;opacity:.434" id="path30" d="M 497.77299,5.5227153 528.90067,42.625657 500.1,24.072541 Z"/><path style="fill:url(#linearGradient4291);fill-opacity:1;opacity:.465" id="path32" d="m 500.1,24.072541 -7.5,47.5 36.31384,-28.93371 z"/><path style="fill:url(#linearGradient4307);fill-opacity:1" id="path34" d="m 528.9125,42.510041 -1.3125,41.5625 -5,10 z"/><path style="fill:url(#linearGradient4387);fill-opacity:1" id="path36" d="M 445.27678,85.802172 492.6,71.572541 482.6221,119.13883 Z"/><path style="fill:url(#linearGradient4251);fill-opacity:1" id="path38" d="m 482.6,119.07254 40,-24.999999 -30,-22.5 -10,47.499999 z"/><path style="fill:url(#linearGradient4458);fill-opacity:1" id="path42" d="m 445.20355,85.740434 -35.94929,-6.239495 7.64476,-47.471291 z"/><path style="fill:url(#linearGradient4426);fill-opacity:1" id="path44" d="M 416.91878,32.075682 455.1,1.5725406 452.6,39.072541 Z"/><path style="fill:#f2743f;fill-opacity:0" id="path46" d="m 455.1,1.5725406 -30,7.5 -10,22.5000004 40,-30.0000004 z"/><path style="fill:url(#linearGradient4275);fill-opacity:1" id="path48" d="m 432.6,124.07254 -25,-20 1.63218,-24.593698 z"/><path style="fill:url(#linearGradient4379);fill-opacity:1" id="path50" d="M 482.6,119.07254 445.27678,85.824269 432.6,124.07254 Z"/><path style="fill:url(#linearGradient4403);fill-opacity:1" id="path52" d="m 432.6,124.07254 -23.34575,-44.555028 36.02253,6.28466 z"/><path style="fill:url(#linearGradient4474);fill-opacity:1" id="path54" d="M 422.07254,11.323651 395.1,54.072541 416.91196,32.058677 Z"/><path style="opacity:1;fill:url(#linearGradient4283);fill-opacity:1" id="path56" d="M 407.6,104.07254 395.1,54.072541 409.25978,79.545133 Z"/><path style="fill:url(#linearGradient4466);fill-opacity:1" id="path58" d="M 409.2432,79.48989 395.1,54.072541 416.9125,32.041291 Z"/><rect style="fill:url(#radialGradient5654);fill-opacity:1;stroke:none;stroke-width:6;stroke-miterlimit:4;stroke-dasharray:none;stroke-opacity:1" id="rect4190" width="49.161" height="18.52" x="450.907" y="22.358" ry="6.734"/><rect style="opacity:.60799997;isolation:isolate;fill:url(#radialGradient5654-4);fill-opacity:1;stroke:none;stroke-width:6;stroke-miterlimit:4;stroke-dasharray:none;stroke-opacity:1" id="rect4190-9" width="47.029" height="25.815" x="453.787" y=".688" ry="6.734"/><rect style="isolation:isolate;fill:url(#radialGradient5654-4-1);fill-opacity:1;stroke:none;stroke-width:6;stroke-miterlimit:4;stroke-dasharray:none;stroke-opacity:1" id="rect4190-9-2" width="8.137" height="38.105" x="448.834" y="1.007" ry="6.734"/><rect style="isolation:isolate;fill:url(#radialGradient5654-4-1-9);fill-opacity:1;stroke:none;stroke-width:6;stroke-miterlimit:4;stroke-dasharray:none;stroke-opacity:1" id="rect4190-9-2-1" width="29.519" height="11" x="420.501" y="31.674" ry="5.5"/><rect style="isolation:isolate;fill:url(#radialGradient5654-4-1-2);fill-opacity:1;stroke:none;stroke-width:6;stroke-miterlimit:4;stroke-dasharray:none;stroke-opacity:1" id="rect4190-9-2-9" width="8.678" height="23.676" x="415.923" y="9.505" ry="6.734"/><rect style="opacity:.357;isolation:isolate;fill:url(#radialGradient5654-4-1-2-9);fill-opacity:1;stroke:none;stroke-width:6;stroke-miterlimit:4;stroke-dasharray:none;stroke-opacity:1" id="rect4190-9-2-9-0" width="7.632" height="21.662" x="494.73" y="2.82" ry="6.734"/><rect style="isolation:isolate;fill:url(#radialGradient5654-4-1-2-0);fill-opacity:1;stroke:none;stroke-width:6;stroke-miterlimit:4;stroke-dasharray:none;stroke-opacity:1" id="rect4190-9-2-9-01" width="18.071" height="22.224" x="399.125" y="28.743" ry="6.734"/><rect style="isolation:isolate;fill:url(#radialGradient5654-4-1-2-7-7);fill-opacity:1;stroke:none;stroke-width:6;stroke-miterlimit:4;stroke-dasharray:none;stroke-opacity:1" id="rect4190-9-2-9-6-5" width="32.373" height="51.665" x="411.696" y="31.325" ry="6.734"/><path style="isolation:isolate;fill:url(#linearGradient4426-1);fill-opacity:1" id="path44-2" d="M 422.04781,11.372967 455.1107,1.5634655 416.91241,32.07372 Z"/><path style="isolation:isolate;fill:url(#linearGradient4458-1);fill-opacity:1" id="path42-2" d="M 452.59941,39.066801 445.28977,85.742878 416.91565,32.063129 Z"/><path style="opacity:.46100003;isolation:isolate;fill:url(#linearGradient4458-1-4);fill-opacity:1" id="path42-2-6" d="M 492.59509,71.597846 445.21594,85.753616 452.598,39.071152 Z"/><rect style="opacity:.60799997;isolation:isolate;fill:url(#radialGradient5654-4-18);fill-opacity:1;stroke:none;stroke-width:6;stroke-miterlimit:4;stroke-dasharray:none;stroke-opacity:1" id="rect4190-9-5" width="34.272" height="27.755" x="455.431" y="42.344" ry="6.734"/><path style="isolation:isolate;fill:url(#linearGradient4243);fill-opacity:1" id="path32-1" d="m 492.59367,71.582642 30.01281,22.495363 6.2956,-51.432932 z"/><path style="isolation:isolate;fill:#94330b;fill-opacity:1" id="path40-1" d="m 482.61328,119.07254 -25.36707,10.02589 -24.64775,-5.02723 z"/><rect style="opacity:.60799997;isolation:isolate;fill:url(#radialGradient5654-4-18-0);fill-opacity:1;stroke:none;stroke-width:6;stroke-miterlimit:4;stroke-dasharray:none;stroke-opacity:1" id="rect4190-9-5-3" width="10.921" height="41.456" x="491.149" y="25.559" ry="6.734"/><rect style="opacity:.38500001;isolation:isolate;fill:url(#radialGradient5654-4-1-8);fill-opacity:1;stroke:none;stroke-width:6;stroke-miterlimit:4;stroke-dasharray:none;stroke-opacity:1" id="rect4190-9-2-2" width="12.012" height="42.98" x="480.494" y="76.207" rx="0" ry="6.734"/><rect style="opacity:.38500001;isolation:isolate;fill:url(#radialGradient5654-4-1-8-7);fill-opacity:1;stroke:none;stroke-width:6;stroke-miterlimit:4;stroke-dasharray:none;stroke-opacity:1" id="rect4190-9-2-2-7" width="15.387" height="40.73" x="432.347" y="87.546" rx="0" ry="6.734"/><rect style="opacity:.54199997;isolation:isolate;fill:url(#radialGradient5654-4-1-8-7-1);fill-opacity:1;stroke:none;stroke-width:6;stroke-miterlimit:4;stroke-dasharray:none;stroke-opacity:1" id="rect4190-9-2-2-7-7" width="37.573" height="30.231" x="448.621" y="93.15" rx="0" ry="6.734"/><rect style="opacity:.495;isolation:isolate;fill:url(#radialGradient5654-4-1-8-79);fill-opacity:1;stroke:none;stroke-width:6;stroke-miterlimit:4;stroke-dasharray:none;stroke-opacity:1" id="rect4190-9-2-2-9" width="35.347" height="29.192" x="488.615" y="68.814" rx="0" ry="6.734"/><rect style="opacity:.613;isolation:isolate;fill:url(#radialGradient5654-4-1-8-79-4-4);fill-opacity:1;stroke:none;stroke-width:6;stroke-miterlimit:4;stroke-dasharray:none;stroke-opacity:1" id="rect4190-9-2-2-9-2-5" width="31.722" height="13.567" x="444.139" y="113.914" rx="0" ry="6.734"/><rect style="opacity:.52899996;isolation:isolate;fill:url(#radialGradient5654-4-1-8-79-5);fill-opacity:1;stroke:none;stroke-width:6;stroke-miterlimit:4;stroke-dasharray:none;stroke-opacity:1" id="rect4190-9-2-2-9-3" width="42.506" height="19.535" x="448.324" y="70.46" rx="0" ry="6.734"/><rect style="opacity:.3800001;isolation:isolate;fill:url(#radialGradient5654-4-1-8-79-5-5);fill-opacity:1;stroke:none;stroke-width:6;stroke-miterlimit:4;stroke-dasharray:none;stroke-opacity:1" id="rect4190-9-2-2-9-3-4" width="42.506" height="23.535" x="490.434" y="47.118" rx="0" ry="6.734"/><rect style="opacity:.49500002;isolation:isolate;fill:url(#radialGradient5654-4-1-8-79-5-1);fill-opacity:1;stroke:none;stroke-width:6;stroke-miterlimit:4;stroke-dasharray:none;stroke-opacity:1" id="rect4190-9-2-2-9-3-6" width="25.403" height="10.851" x="415.164" y="78.095" rx="0" ry="5.337"/><rect style="opacity:1;isolation:isolate;fill:url(#radialGradient5654-1);fill-opacity:1;stroke:none;stroke-width:6;stroke-miterlimit:4;stroke-dasharray:none;stroke-opacity:1" id="rect4190-7" width="50.929" height="16.31" x="442.212" y="71.24" rx="0" ry="6.734"/><rect style="opacity:1;isolation:isolate;fill:url(#radialGradient5654-1-1);fill-opacity:1;stroke:none;stroke-width:6;stroke-miterlimit:4;stroke-dasharray:none;stroke-opacity:1" id="rect4190-7-8" width="49.161" height="18.52" x="477.107" y="54.125" ry="6.734"/><rect style="isolation:isolate;fill:url(#radialGradient5654-1-6);fill-opacity:1;stroke:none;stroke-width:6;stroke-miterlimit:4;stroke-dasharray:none;stroke-opacity:1" id="rect4190-7-4" width="25.65" height="11.89" x="415.427" y="75.578" ry="5.592"/><rect style="opacity:.11400003;isolation:isolate;fill:url(#radialGradient5654-4-1-8-79-4-1);fill-opacity:1;stroke:none;stroke-width:6;stroke-miterlimit:4;stroke-dasharray:none;stroke-opacity:1" id="rect4190-9-2-2-9-2-6" width="9.95" height="31.647" x="445.525" y="45.363" rx="0" ry="6.734"/><path style="isolation:isolate;fill:#672308;fill-opacity:1" id="path40-1-2" d="m 505.04323,116.366 -25.13479,11.17671 2.69842,-8.49491 z"/><rect style="opacity:1;isolation:isolate;fill:url(#radialGradient5654-4-1-8-7-1-4);fill-opacity:1;stroke:none;stroke-width:6;stroke-miterlimit:4;stroke-dasharray:none;stroke-opacity:1" id="rect4190-9-2-2-7-7-6" width="37.948" height="22.981" x="479.338" y="98.457" rx="0" ry="6.734"/><rect style="isolation:isolate;fill:url(#radialGradient5654-1-6-9-1-5);fill-opacity:1;stroke:none;stroke-width:6;stroke-miterlimit:4;stroke-dasharray:none;stroke-opacity:1" id="rect4190-7-4-7-7-1" width="11.204" height="16.426" x="397.891" y="62.16" ry="6.734"/><rect style="isolation:isolate;fill:url(#radialGradient5654-4-1-2-7-7-3);fill-opacity:1;stroke:none;stroke-width:6;stroke-miterlimit:4;stroke-dasharray:none;stroke-opacity:1" id="rect4190-9-2-9-6-5-9" width="9.763" height="41.314" x="407.633" y="33.286" rx="0" ry="6.734"/><rect style="opacity:.38000039;isolation:isolate;fill:#fff;fill-opacity:1;stroke:none;stroke-width:6;stroke-miterlimit:4;stroke-dasharray:none;stroke-opacity:1;filter:url(#filter4357)" id="rect4190-9-2-23" width="27.76" height="30.327" x="417.902" y="21.634" rx="13.88" ry="15.164" transform="matrix(0.69965901,0.54434642,-0.8719952,0.9139203,156.45552,-245.25819)"/><rect style="opacity:.178;isolation:isolate;fill:url(#radialGradient5654-4-1-8-6);fill-opacity:1;stroke:none;stroke-width:6;stroke-miterlimit:4;stroke-dasharray:none;stroke-opacity:1" id="rect4190-9-2-2-2" width="12.012" height="42.98" x="490.229" y="24.567" rx="0" ry="6.734"/><rect style="opacity:.16799999;isolation:isolate;fill:#4a1905;fill-opacity:0;stroke:none;stroke-width:6;stroke-miterlimit:4;stroke-dasharray:none;stroke-opacity:1" id="rect4190-9-2-2-2-9" width="10.012" height="19.23" x="494.067" y="5.21" rx="0" ry="6.734"/><rect style="isolation:isolate;fill:url(#radialGradient5654-3);fill-opacity:1;stroke:none;stroke-width:6;stroke-miterlimit:4;stroke-dasharray:none;stroke-opacity:1" id="rect4190-95" width="10.889" height="31.955" x="443.544" y="43.513" ry="6.734"/><rect style="opacity:.38500001;isolation:isolate;fill:url(#radialGradient5654-4-1-8-7-0);fill-opacity:1;stroke:none;stroke-width:6;stroke-miterlimit:4;stroke-dasharray:none;stroke-opacity:1" id="rect4190-9-2-2-7-9" width="19.809" height="34.63" x="411.534" y="86.722" rx="0" ry="6.734"/><rect style="opacity:.38500001;isolation:isolate;fill:url(#radialGradient5654-4-1-8-7-0-6);fill-opacity:1;stroke:none;stroke-width:6;stroke-miterlimit:4;stroke-dasharray:none;stroke-opacity:1" id="rect4190-9-2-2-7-9-3" width="6.574" height="27.565" x="404.082" y="78.778" rx="0" ry="6.734"/><rect style="isolation:isolate;fill:url(#radialGradient5654-7);fill-opacity:1;stroke:none;stroke-width:6;stroke-miterlimit:4;stroke-dasharray:none;stroke-opacity:1" id="rect4190-6" width="34.02" height="21.74" x="418.305" y="5.733" rx="0" ry="7.155"/><rect style="opacity:.064;isolation:isolate;fill:#000;fill-opacity:1;stroke:none;stroke-width:6;stroke-miterlimit:4;stroke-dasharray:none;stroke-opacity:1;filter:url(#filter5926)" id="rect4190-9-2-23-7" width="27.76" height="30.327" x="417.902" y="21.634" rx="13.88" ry="15.164" transform="matrix(1.1492432,1.239981,-1.9228282,1.451278,58.032074,-494.23217)"/><rect style="opacity:.60799997;isolation:isolate;fill:url(#radialGradient5654-4-5);fill-opacity:1;stroke:none;stroke-width:6;stroke-miterlimit:4;stroke-dasharray:none;stroke-opacity:1" id="rect4190-9-0" width="47.029" height="25.815" x="490.611" y="21.04" ry="6.734"/></svg>